<?xml version="1.0" encoding="UTF-8" standalone="no"?><!DOCTYPE svg PUBLIC "-//W3C//DTD SVG 1.1//EN" "http://www.w3.org/Graphics/SVG/1.1/DTD/svg11.dtd"><svg width="100%" height="100%" viewBox="0 0 400 401" version="1.1" xmlns="http://www.w3.org/2000/svg" xmlns:xlink="http://www.w3.org/1999/xlink" xml:space="preserve" xmlns:serif="http://www.serif.com/" style="fill-rule:evenodd;clip-rule:evenodd;stroke-linejoin:round;stroke-miterlimit:1.41421;"><g id="svgg"><path id="path0" d="M128.608,115.79l-1.46,1.336l-0.114,11.15c-0.174,16.89 -3.855,15.08 30.681,15.082l27.051,0.001l0.008,84.082c0.009,81.755 0.029,84.128 0.751,85.717c1.301,2.867 1.513,2.906 15.048,2.776l11.877,-0.114l1.199,-1.149c2.04,-1.955 1.972,1.077 1.974,-87.62l0.002,-83.692l26.855,-0.001c34.308,-0.002 30.66,1.803 30.486,-15.082l-0.114,-11.15l-1.46,-1.336l-1.459,-1.337l-69.933,0l-69.933,0l-1.459,1.337" style="fill:#fbfbfb;"/><path id="path1" d="M307.813,247.449l-91.993,47.767l-0.195,8.74c-0.288,12.895 0.787,12.06 -15.535,12.06c-13.642,0 -13.475,0.035 -14.905,-3.159l-0.655,-1.463l-18.756,9.731l-18.755,9.731l-72.813,-31.249c-40.047,-17.187 -73.126,-31.348 -73.509,-31.47c-2.047,-0.649 -0.284,44.84 2.279,58.816c1.965,10.715 6.953,25.875 9.124,27.735c0.413,0.353 3.134,5.126 3.134,5.496c0,0.2 0.176,0.363 0.391,0.363c0.215,0 0.391,0.264 0.391,0.586c0,0.322 0.164,0.586 0.364,0.586c0.2,0 0.463,0.307 0.584,0.683c0.12,0.376 0.615,1.162 1.1,1.746c0.485,0.585 1.409,1.722 2.053,2.529c3.254,4.069 7.444,8.377 11.516,11.839c1.391,1.181 2.73,2.324 2.978,2.539c0.247,0.215 0.842,0.654 1.323,0.976c0.48,0.323 1.452,1.026 2.159,1.563c0.707,0.537 1.874,1.319 2.592,1.738c0.719,0.419 2.538,1.479 4.042,2.357c8.387,4.892 18.993,8.424 30.468,10.145c0.86,0.129 2.618,0.397 3.907,0.595c11.466,1.766 11.484,1.766 120.898,1.766c109.701,0 109.523,0.003 121.094,-1.801c1.396,-0.217 3.242,-0.494 4.101,-0.615c2.009,-0.282 9.083,-1.836 12.11,-2.66c1.289,-0.352 3.003,-0.804 3.81,-1.006c4.621,-1.158 16.579,-7.331 22.141,-11.43c7.817,-5.761 14.777,-12.866 19.96,-20.378c0.741,-1.075 1.679,-2.569 2.083,-3.321c0.405,-0.752 0.856,-1.455 1.003,-1.562c0.146,-0.108 0.497,-0.767 0.779,-1.465c0.283,-0.698 0.668,-1.269 0.857,-1.269c0.189,0 0.343,-0.163 0.343,-0.362c0,-0.198 0.871,-2.176 1.934,-4.394c5.459,-11.384 8.401,-26.482 9.387,-48.174c0.258,-5.666 0.546,-102.198 0.305,-102.112c-0.056,0.02 -41.499,21.531 -92.094,47.803" style="fill:#943c5b;"/><path id="path2" d="M312.399,152.893c-47.91,25.155 -89.263,46.871 -91.895,48.259l-4.785,2.523l0,91.761l7.52,-3.898c4.135,-2.144 45.576,-23.641 92.089,-47.772l84.571,-43.875l0.099,-45.237c0.055,-24.88 -0.033,-45.745 -0.195,-46.366l-0.295,-1.13l-87.109,45.735m-312.304,70.326l0.002,44.67l147.018,63.082l18.775,-9.741l18.774,-9.741l0.1,-45.909l0.099,-45.91l-2.248,1.304c-2.197,1.274 -31.053,16.481 -35.991,18.966l-2.493,1.255l-4.929,-2.139c-2.71,-1.177 -9.059,-3.934 -14.108,-6.127c-5.049,-2.193 -9.268,-4.102 -9.375,-4.243c-0.107,-0.141 -1.514,-0.818 -3.125,-1.504c-3.21,-1.368 -91.642,-39.591 -103.906,-44.912c-4.19,-1.817 -7.837,-3.398 -8.106,-3.513c-0.389,-0.166 -0.488,8.874 -0.487,44.462m0.127,73.967c0.002,1.504 0.073,2.072 0.157,1.261c0.085,-0.81 0.083,-2.041 -0.003,-2.734c-0.086,-0.694 -0.156,-0.031 -0.154,1.473m399.593,0.782c0.003,1.074 0.079,1.467 0.169,0.873c0.089,-0.594 0.087,-1.473 -0.006,-1.953c-0.092,-0.48 -0.166,0.005 -0.163,1.08m-399.224,8.398c0,0.967 0.076,1.362 0.169,0.879c0.093,-0.483 0.093,-1.275 0,-1.758c-0.093,-0.483 -0.169,-0.088 -0.169,0.879" style="fill:#d34344;"/><path id="path3" d="M110.058,0.559c-39.196,0.72 -56.166,4.94 -74.414,18.506c-15.33,11.396 -26.474,28.11 -31.008,46.51c-3.901,15.828 -4.228,21.053 -4.428,70.92l-0.169,42.014l1.103,0.506c2.246,1.032 100.979,43.725 111.455,48.194c1.611,0.688 3.018,1.365 3.125,1.506c0.107,0.141 4.326,2.05 9.375,4.243c5.049,2.193 11.415,4.958 14.146,6.143l4.967,2.157l11.049,-5.777c16.736,-8.749 29.519,-15.254 29.531,-15.966c0.01,-0.669 0.08,-7.796 0.065,-38.013l-0.018,-38.07l-27.038,0.134c-34.488,0.171 -30.749,1.962 -30.749,-14.733l0,-11.231l0.984,-1.291c1.662,-2.178 -1.054,-2.099 71.917,-2.101c73.655,-0.003 69.947,-0.098 71.887,1.842l1.338,1.339l-0.114,11.833l-0.113,11.832l-1.311,1.224c-0.721,0.674 -1.6,1.227 -1.953,1.23c-0.354,0.003 -12.64,0 -27.303,-0.006l-26.66,-0.01l0,60.184l6.152,-3.216c3.384,-1.769 44.737,-23.48 91.895,-48.247c81.151,-42.619 85.757,-44.983 86.023,-44.156c0.354,1.107 -0.048,-12.01 -0.512,-16.703c-0.192,-1.934 -0.345,-4.134 -0.341,-4.889c0.023,-4.49 -2.693,-19.017 -4.966,-26.556c-7.371,-24.443 -30.379,-46.948 -55.053,-53.848c-13.918,-3.893 -24.353,-5.009 -51.714,-5.534c-21.373,-0.409 -154.456,-0.387 -177.148,0.03" style="fill:#fc745c;"/><path id="path4" d="M165.527,114.355c18.96,0.057 49.986,0.057 68.946,0c18.96,-0.056 3.447,-0.101 -34.473,-0.101c-37.92,0 -53.433,0.045 -34.473,0.101m-27.564,29.297c3.585,0.064 9.562,0.064 13.282,0c3.719,-0.064 0.786,-0.117 -6.518,-0.117c-7.305,0 -10.349,0.052 -6.764,0.117" style="fill:#f7a69c;"/></g></svg>