<?xml version="1.0" encoding="UTF-8" standalone="no"?><!DOCTYPE svg PUBLIC "-//W3C//DTD SVG 1.1//EN" "http://www.w3.org/Graphics/SVG/1.1/DTD/svg11.dtd"><svg width="100%" height="100%" viewBox="0 0 400 401" version="1.1" xmlns="http://www.w3.org/2000/svg" xmlns:xlink="http://www.w3.org/1999/xlink" xml:space="preserve" xmlns:serif="http://www.serif.com/" style="fill-rule:evenodd;clip-rule:evenodd;stroke-linejoin:round;stroke-miterlimit:2;"><g id="svgg"><path id="path0" d="M161.543,153.571l-0.817,0.735l-0.063,6.131c-0.098,9.289 -2.155,8.293 17.15,8.295l15.121,0l0.005,46.24c0.005,44.96 0.016,46.265 0.419,47.139c0.728,1.577 0.846,1.598 8.412,1.527l6.639,-0.063l0.67,-0.632c1.141,-1.075 1.103,0.592 1.104,-48.185l0.001,-46.026l15.012,-0c19.177,-0.002 17.138,0.991 17.041,-8.295l-0.064,-6.131l-0.816,-0.735l-0.816,-0.735l-78.183,-0l-0.815,0.735" style="fill:#fbfbfb;"/><path id="path1" d="M261.771,225.975l-51.422,26.269l-0.109,4.807c-0.161,7.091 0.439,6.632 -8.684,6.632c-7.626,-0 -7.533,0.019 -8.332,-1.738l-0.366,-0.804l-10.485,5.351l-10.483,5.352l-40.702,-17.185c-22.386,-9.452 -40.876,-17.24 -41.09,-17.307c-1.145,-0.357 -0.159,24.659 1.274,32.345c1.098,5.893 3.886,14.23 5.1,15.253c0.231,0.194 1.752,2.819 1.752,3.022c-0,0.11 0.098,0.2 0.218,0.2c0.12,0 0.219,0.145 0.219,0.322c-0,0.177 0.091,0.323 0.203,0.323c0.112,-0 0.259,0.168 0.327,0.375c0.067,0.207 0.343,0.639 0.615,0.96c0.271,0.322 0.787,0.947 1.147,1.391c1.819,2.238 4.161,4.607 6.437,6.511c0.778,0.649 1.526,1.278 1.665,1.396c0.138,0.118 0.471,0.36 0.74,0.537c0.268,0.178 0.811,0.564 1.206,0.859c0.396,0.296 1.048,0.726 1.449,0.956c0.402,0.231 1.419,0.814 2.26,1.296c4.688,2.691 10.617,4.633 17.031,5.58c0.481,0.071 1.463,0.218 2.184,0.327c6.409,0.971 6.419,0.971 67.58,0.971c61.322,-0 61.222,0.002 67.69,-0.99c0.781,-0.12 1.813,-0.272 2.293,-0.339c1.123,-0.155 5.077,-1.009 6.769,-1.463c0.721,-0.193 1.679,-0.442 2.13,-0.553c2.583,-0.637 9.267,-4.031 12.376,-6.286c4.37,-3.168 8.261,-7.075 11.158,-11.206c0.414,-0.591 0.938,-1.413 1.164,-1.827c0.226,-0.413 0.479,-0.8 0.561,-0.859c0.081,-0.059 0.278,-0.421 0.435,-0.805c0.158,-0.384 0.374,-0.698 0.479,-0.698c0.106,-0 0.192,-0.09 0.192,-0.199c0,-0.109 0.487,-1.197 1.081,-2.417c3.052,-6.26 4.696,-14.563 5.247,-26.492c0.145,-3.116 0.306,-56.203 0.171,-56.156c-0.032,0.011 -23.198,11.841 -51.48,26.289" style="fill:#943c5b;"/><path id="path2" d="M264.239,173.975c-26.781,13.834 -49.897,25.776 -51.369,26.54l-2.674,1.387l-0,50.463l4.203,-2.144c2.312,-1.179 25.477,-13.001 51.477,-26.271l47.274,-24.129l0.055,-24.877c0.031,-13.683 -0.018,-25.157 -0.109,-25.499l-0.165,-0.621l-48.692,25.151m-174.574,38.675l0.001,24.566l82.181,34.691l10.495,-5.357l10.494,-5.357l0.056,-25.247l0.056,-25.248l-1.257,0.718c-1.228,0.7 -17.358,9.063 -20.118,10.43l-1.394,0.69l-2.755,-1.176c-1.515,-0.648 -5.064,-2.164 -7.886,-3.37c-2.823,-1.206 -5.181,-2.256 -5.241,-2.333c-0.06,-0.078 -0.846,-0.45 -1.747,-0.827c-1.794,-0.753 -51.227,-21.773 -58.082,-24.699c-2.342,-0.999 -4.381,-1.869 -4.531,-1.932c-0.218,-0.091 -0.273,4.88 -0.272,24.451m0.071,40.677c0.001,0.828 0.04,1.14 0.087,0.694c0.048,-0.446 0.047,-1.123 -0.001,-1.504c-0.048,-0.381 -0.087,-0.017 -0.086,0.81m223.367,0.43c0.002,0.591 0.044,0.807 0.094,0.481c0.05,-0.327 0.049,-0.81 -0.003,-1.074c-0.051,-0.264 -0.093,0.002 -0.091,0.593m-223.161,4.619c-0,0.532 0.042,0.749 0.094,0.483c0.052,-0.265 0.052,-0.701 0,-0.967c-0.052,-0.265 -0.094,-0.048 -0.094,0.484" style="fill:#d34344;"/><path id="path3" d="M151.182,90.201c-21.91,0.396 -31.396,2.717 -41.596,10.177c-8.569,6.267 -14.799,15.459 -17.333,25.578c-2.181,8.704 -2.364,11.578 -2.475,39.001l-0.095,23.105l0.617,0.279c1.255,0.567 56.446,24.046 62.302,26.503c0.9,0.379 1.687,0.751 1.746,0.829c0.06,0.077 2.419,1.127 5.241,2.333c2.822,1.206 6.381,2.727 7.907,3.378l2.777,1.187l6.176,-3.177c9.355,-4.812 16.501,-8.389 16.508,-8.781c0.005,-0.368 0.044,-4.287 0.036,-20.905l-0.01,-20.936l-15.114,0.074c-19.278,0.094 -17.188,1.079 -17.188,-8.102l-0,-6.177l0.55,-0.71c0.929,-1.197 -0.589,-1.154 40.2,-1.155c41.173,-0.002 39.1,-0.054 40.184,1.013l0.748,0.736l-0.063,6.508l-0.064,6.507l-0.732,0.673c-0.404,0.37 -0.895,0.675 -1.092,0.676c-0.198,0.002 -7.066,0 -15.262,-0.003l-14.903,-0.006l0,33.098l3.439,-1.769c1.892,-0.973 25.007,-12.912 51.368,-26.533c45.363,-23.437 47.937,-24.737 48.086,-24.283c0.198,0.609 -0.027,-6.604 -0.286,-9.185c-0.108,-1.064 -0.193,-2.274 -0.191,-2.689c0.013,-2.469 -1.505,-10.458 -2.776,-14.604c-4.12,-13.442 -16.981,-25.819 -30.774,-29.613c-7.78,-2.141 -13.613,-2.755 -28.907,-3.043c-11.947,-0.225 -86.339,-0.213 -99.024,0.016" style="fill:#fc745c;"/><path id="path4" d="M188.042,152.782c10.599,0.031 27.942,0.031 38.54,-0c10.599,-0.031 1.927,-0.056 -19.27,-0.056c-21.197,0 -29.868,0.025 -19.27,0.056m-15.408,16.111c2.004,0.035 5.345,0.035 7.425,0c2.079,-0.035 0.439,-0.064 -3.644,-0.064c-4.083,-0 -5.785,0.029 -3.781,0.064" style="fill:#f7a69c;"/></g></svg>